<?xml version="1.0" encoding="UTF-8"?>
<svg xmlns="http://www.w3.org/2000/svg" version="1.1" viewBox="0 0 1920 1080">
  <defs>
    <style>
      .cls-1 {
        fill: #075833;
      }
    </style>
  </defs>
  <!-- Generator: Adobe Illustrator 28.7.9, SVG Export Plug-In . SVG Version: 1.2.0 Build 218)  -->
  <g>
    <g id="Layer_1">
      <g>
        <path class="cls-1" d="M28,763.5v-445.2h407.8v66.8H95.3v121.8h273.7v68H95.3v121.8h340.4v66.8H28Z"/>
        <path class="cls-1" d="M485.8,763.5v-445.2h363.9c14.8,0,28.4,3.6,40.8,10.8,12.4,7.2,22.1,16.9,29.3,29.1,7.2,12.2,10.8,25.7,10.8,40.5v284.4c0,14.8-3.6,28.3-10.8,40.5-7.2,12.2-17,21.9-29.3,29.1-12.4,7.2-25.9,10.8-40.8,10.8h-363.9ZM567.4,696.8h280.5c4.5,0,8.2-1.5,11.1-4.6,2.9-3.1,4.3-6.7,4.3-10.8v-280.7c0-4.1-1.4-7.7-4.3-10.8-2.9-3.1-6.6-4.6-11.1-4.6h-280.5c-4.1,0-7.6,1.5-10.5,4.6-2.9,3.1-4.3,6.7-4.3,10.8v280.7c0,4.1,1.4,7.7,4.3,10.8,2.9,3.1,6.4,4.6,10.5,4.6Z"/>
        <path class="cls-1" d="M985.6,763.5v-445.2h407.8v66.8h-340.4v121.8h273.7v68h-273.7v121.8h340.4v66.8h-407.8Z"/>
        <path class="cls-1" d="M1442.2,763.5v-445.2h79.7l297.8,354.9v-354.9h67.3v445.2h-79.7l-298.4-355.5v355.5h-66.7Z"/>
      </g>
    </g>
  </g>
</svg>