<?xml version="1.0" encoding="UTF-8"?>
<svg id="Layer_1" xmlns="http://www.w3.org/2000/svg" version="1.1" viewBox="0 0 1080 1080">
  <!-- Generator: Adobe Illustrator 29.7.1, SVG Export Plug-In . SVG Version: 2.1.1 Build 8)  -->
  <defs>
    <style>
      .st0 {
        fill: #075833;
      }
    </style>
  </defs>
  <g id="Layer_11" data-name="Layer_1">
    <path class="st0" d="M1068.1,428C1006,136.1,719.3-50.2,427.6,11.9c-102,21.7-195.6,72.6-269.4,146.4-24.5,24.6-46.6,51.4-66.1,80.1-5.7,7.7-10.9,15.8-15.5,24.3C-76.2,519,7.6,850.8,263.8,1003.6c256.2,152.9,587.6,69,740.4-187.3,11.1-18.8,21.2-38.1,30-58.1,3.2-6.7,6-13.6,8.6-20.6,38-98.1,46.9-205,25.5-308.1l-.3-1.7h.1ZM880.9,180.9c3.1,3,6.1,5.9,9.2,9,47,46.8,84.1,102.8,109,164.3,1.7,4.2-.3,9.1-4.6,10.9-1.5.6-3.1.7-4.7.5-15.8-2.6-31.9-3.8-47.9-3.4-12.3.3-22.9-8.5-25.1-20.6-8.6-50.5-22.5-99.9-41.4-147.5l-3.1-7.3c-1.2-2.6,0-5.8,2.6-7,2-.8,4.2-.4,5.8,1.1h0ZM932.2,497.9c0-3.2,2.5-5.8,5.7-5.8s3.6.8,4.8,2.3c4,5.7,7.9,11.4,11.7,17.2,5,7.6,9.5,15.2,13.9,22.8,2.8,4.7,2,10.6-1.6,14.6-5.8,6.5-12.1,13-18.9,19.7l-7.4,7.5c-1.8,2-4.9,2.1-6.9.3-1.1-1.1-1.7-2.5-1.6-4,.3-8.2.5-16.3.6-24.3.1-17,0-33.6-.4-50.1h0v-.2ZM252.5,136.7c83.8-60.1,184.4-92.2,287.4-92,27.3,0,54.6,2.2,81.5,6.7,4.6.8,7.5,5.1,6.7,9.6-.3,1.9-1.4,3.7-2.9,5-25.9,20.3-49.9,50.3-71.1,89.2-5.2,9.4-16.2,14.1-26.6,11.2-66.1-19.4-134.9-28.4-203.9-26.9-22.5.7-44.9,3.1-67.1,7.1-3.1.4-5.8-1.7-6.4-4.8-.3-2,.5-4,2.2-5.3h0ZM181.8,876.9c-10.4-19.7,3.1-65.2,71.4-134.3h0c6.7-6.7,6.6-17.5,0-24.2-.4-.4-1-.8-1.4-1.3l-8.2-6.5c-6.8-5.5-16.6-5-22.8,1.2l-2.6,2.6c-34,35.1-58.3,67.6-71.5,96.7s-9.6,8.5-15.5,5.7c-2-1-3.6-2.3-4.9-4.1-53.4-80.8-81.8-175.7-81.5-272.6,0-34.8,3.6-69.4,10.8-103.4-.1-2.6,1.9-5,4.7-5.1,2.6-.1,5,1.9,5.1,4.7,11.7,37.1,28.5,72.3,50,104.6,33.7,50.8,74.4,96.5,120.8,136h0c16.6,14.6,34,28.3,52.3,41.7,38,27.9,78.2,52.9,120.1,74.6,19,9.7,37.5,19.4,56.4,27.8,10.5,4.8,22.6,5.1,33.3,1,8.9-3.5,17.9-7.1,26.9-10.9,9.9-4.1,15.2-14.8,12.6-25.2-.3-1.3-.5-2.3-.7-3-15.6-68.1-23.7-137.6-24.3-207.6h0v-21.2h0v-13.9c0-12.7.6-25.3,1.4-37.8h0c4.9-89.3,19.7-173.3,43.7-243.9,2.2-6.6-1.3-13.7-7.7-15.9-6.4-2.1-12.8-4.2-19.1-6.3-6.5-2-13.3,1.5-15.5,7.8-26.1,76.7-42.2,167.6-46.5,263.9-.5,12.2-7.2,23.3-17.7,29.6-53.8,31.7-105.5,67-154.6,105.7-9.4,7.5-22.9,7.2-32-.6-43.1-36.7-80.8-79.3-112.2-126.3-56.7-87.1-70.1-169.1-37.9-230.9l.2-.4c4.1-6.9,8.4-13.6,12.8-20.2,37.1-49.1,106-77.5,197.3-80.6,5.7-.2,11.5-.3,17.5-.3,60.1.6,119.8,9.7,177.4,26.9h0l4,1.2,3.1.8h0c14.1,4.2,28.3,8.9,42.5,14h0l1.1.3,11,4.1,3.5,1.3,3.4,1.3h0c30.4,11.8,60.3,25.2,89.2,40.4,55.1,28.5,107,62.9,154.7,102.6-86.8,19.9-187.5,58.3-288.9,110-4.7,2.3-7.7,7.1-8.1,12.3-.4,6.3-.8,18.9-1.2,29.1-.1,4.6,3.4,8.4,7.9,8.5,1.5,0,2.9-.3,4.1-1h0c100.3-52.8,200.6-92.3,286.5-113.1,16.1-3.9,26.6-19.4,24.3-35.7-1.6-11.4-3.4-22.8-5.3-34-2.4-13.9-10.1-26.4-21.3-34.9-41.6-31.6-85.8-59.5-132.2-83.6-31.5-16.4-63.9-31-97.1-43.8-6.3-2.3-9.4-9.4-7.1-15.7.2-.5.5-1.2.7-1.7,33.6-60.1,73.4-93.8,112.3-93.8h1.2c45.9.8,91.6,48.6,125.4,131.2,18.3,45.8,31.8,93.4,39.9,142.2h0c3.9,22.4,7,45.5,9.3,69.1l-.6.4.8.8c3.9,41,5.6,82.2,4.9,123.3-.5,26.7-1.9,53.1-4.1,78.8-68.9,54.6-142.8,102.6-220.7,143.2-27.3,14.6-54.8,28.1-81.9,40.5l-1.3.6-6.3,2.9h0c-22.5,10.2-44.7,19.6-66.6,28.2h0l-3.7,1.4-4.9,1.8-11,4.1-3,1.2-13.2,4.9-1.6.6h0c-43.1,15.8-87.4,28.2-132.4,37.2-98.6,18.9-144.7,4.3-155.5-15.6v.3ZM317.4,684.5c47.8-38.5,98.1-73.3,150.9-104.6.8,68.2,8.6,136.3,23,202.9-20.8-8.9-41.4-18.6-62.1-29.1-38.9-20.2-76.3-43.3-111.7-69.2h-.1ZM603.9,1031.7c-21.2,2.8-42.5,4.1-63.9,4.1-94.8.3-187.6-26.9-267.3-78.2-3.1-2-4-6.1-2-9.2,1.2-1.8,3.2-3,5.3-3.1h3.7c22.1-1.6,44.1-4.6,65.8-8.9,56.7-11.5,112.4-28,166.2-49.2,5.3-2,11.2.6,13.3,5.8h0c22.9,55.7,51.1,97.9,82.5,124.7,3.3,2.9,3.6,7.8.7,11.1-1.2,1.4-2.9,2.3-4.8,2.6h.3ZM813.3,899.5c-35.4,69.6-78.9,108.6-121.1,107.9-45.9-.8-91.6-48.6-125.6-131.2h0c-2.1-5.3.3-11.2,5.5-13.5l1.1-.4c2.2-1,4.7-1.2,7-.5,60,17.4,122.1,26.5,184.5,27,6.4,0,12.7,0,18.9-.3,7.3-.2,14.5-.6,21.6-1.2,4.7-.1,8.6,3.5,8.7,8.2,0,1.4-.2,2.8-.8,4h.3ZM828.7,839.6c-15.5,2.2-30.9,3.6-46.5,4.1-41.9,1.2-83.6-2.2-124.7-10-3.1-.5-5-3.5-4.4-6.6.3-1.7,1.5-3.2,3-3.9,9.3-4.9,18.8-9.7,28.2-14.6,62.9-33.2,123.5-70.8,181.3-112.4,2.5-1.8,6-1.3,7.8,1.3.8,1.2,1.3,2.8,1,4.2-6.9,42.6-17.3,84.5-30.9,125.6-2.1,6.5-7.8,11.2-14.5,12.3h-.1ZM901.4,878.9c-3.7,4-7.5,7.9-11.4,11.8-6.8,6.8-13.7,13.2-20.8,19.4-2.2,2-5.7,1.9-7.7-.4-1.5-1.7-1.8-4-.8-6l2.1-4.9c3-6.5,5.8-13.1,8.6-20.1.6-1.6,2-2.8,3.7-3.3,7-1.8,13.9-3.7,20.6-5.8,2.8-1.4,6-.3,7.4,2.4,1.2,2.3.5,5.2-1.6,6.9h0ZM1000.9,721.7c-2.3,6-4.9,12.1-7.5,18-.4.8-.7,1.7-1.2,2.4-16.3,31.5-43.7,56.3-80.3,73.4-5.3,2.4-11.5,0-14-5.3-1.1-2.2-1.2-4.8-.5-7.1,12.6-46,21.7-92.9,27.3-140.3,1.2-9.2,5.7-17.7,12.7-23.7,15-13,29.1-26.1,42.1-38.9h0c4.7-4.7,12.2-4.7,16.8,0,1.4,1.4,2.4,3.1,3,5,12.8,42.4,13.5,82,1.8,116.5h-.2ZM1010.7,489.6c-2.8,4.9-8.9,6.6-13.8,3.8-1.4-.8-2.6-1.9-3.5-3.3l-1.9-3c-15.3-23.4-32.2-45.7-50.8-66.6-3-3.5-2.5-8.7.8-11.7,1.5-1.3,3.4-2,5.4-2h0c44.4,0,67.6,11,74.7,24.3,6.4,11.2,4.6,30.8-10.8,58.4h-.2ZM1034.6,555c0,1.7-1.5,3.1-3.2,3.1s-2.3-.7-2.8-1.9c-.5-1.3-1.2-2.6-1.7-4-1.1-2.4-.7-5.3.8-7.4l1.8-2.3c2.2-2.9,5.3-2.3,5.3.7.2,4.1.1,7.7,0,12h-.3Z"/>
  </g>
</svg>
