<?xml version="1.0" encoding="UTF-8"?>
<svg id="Layer_1" xmlns="http://www.w3.org/2000/svg" viewBox="0 0 1842.48 322.52">
  <defs>
    <style>
      .cls-1 {
        fill: #075833;
      }
    </style>
  </defs>
  <path class="cls-1" d="M1261.97,201.65l-48.11-83.5c-2.41-3.98-7.59-5.26-11.57-2.84-1.16.7-2.14,1.68-2.84,2.84l-48.11,83.5c-.56,1.02-.89,2.15-.94,3.31-.32,4.67,3.21,8.71,7.87,9.03.07,0,.13,0,.2.01,3.29.07,5.8-1.58,7.84-5.12l7.44-12.94c.97-1.7,2.77-2.74,4.73-2.74h56.17c1.95,0,3.76,1.05,4.73,2.74l7.44,12.94c1.87,3.35,4.35,5.02,7.45,5.12,4.62.18,8.52-3.43,8.69-8.06,0-.08,0-.17,0-.25-.03-1.4-.37-2.78-1-4.03ZM1221.85,176.55h-30.45c-2.06,0-3.72-1.68-3.71-3.74,0-.65.17-1.28.5-1.84l15.3-26.42c1.03-1.78,3.31-2.39,5.09-1.36.57.33,1.03.8,1.36,1.36l15.19,26.42c1.03,1.79.41,4.06-1.37,5.09-.58.33-1.24.5-1.9.5h0ZM318.84,127.81C300.31,40.65,214.68-14.98,127.58,3.56c-30.48,6.49-58.42,21.67-80.46,43.72-7.32,7.32-13.93,15.33-19.73,23.91-1.72,2.3-3.26,4.72-4.61,7.25C-22.83,155,2.2,254.07,78.69,299.72c76.49,45.65,175.49,20.6,221.1-55.94,3.33-5.59,6.32-11.38,8.96-17.33.96-2,1.82-4.05,2.55-6.14,11.35-29.29,14-61.24,7.63-92l-.09-.49ZM262.92,54.03c.93.89,1.84,1.78,2.75,2.7,14.04,14,25.11,30.69,32.56,49.07.52,1.28-.1,2.73-1.37,3.25-.44.18-.92.23-1.38.14-4.73-.8-9.52-1.14-14.31-1.02-3.66.08-6.84-2.52-7.5-6.12-2.57-15.08-6.72-29.84-12.38-44.05l-.91-2.19c-.35-.8,0-1.73.8-2.09.59-.26,1.27-.14,1.74.3h0ZM278.24,148.69c-.01-.95.75-1.74,1.7-1.75.56,0,1.09.26,1.42.71,1.22,1.7,2.38,3.41,3.49,5.12,1.48,2.27,2.86,4.54,4.13,6.79.81,1.4.61,3.16-.48,4.35-1.73,1.93-3.61,3.9-5.63,5.89l-2.22,2.23c-.54.59-1.46.62-2.05.08-.33-.31-.5-.75-.46-1.2.1-2.42.16-4.86.2-7.25.04-5.06.01-10.04-.12-14.97h0ZM75.27,40.85c25.02-17.93,55.05-27.54,85.83-27.45,8.15,0,16.3.66,24.34,1.99,1.35.24,2.25,1.53,2,2.88-.1.58-.41,1.1-.86,1.47-7.71,6.06-14.89,15.03-21.24,26.65-1.55,2.83-4.84,4.22-7.95,3.35-19.76-5.78-40.28-8.49-60.86-8.02-6.72.22-13.41.93-20.02,2.12-.91.13-1.76-.5-1.89-1.42-.09-.6.16-1.21.65-1.57h-.01ZM54.16,261.87c-3.1-5.88.91-19.47,21.33-40.13h0c1.98-2,1.96-5.22-.03-7.2-.13-.13-.27-.26-.42-.37l-2.44-1.94c-2.03-1.65-4.97-1.49-6.81.36l-.8.8c-10.15,10.48-17.4,20.18-21.34,28.9-.8,1.75-2.87,2.52-4.61,1.72-.59-.27-1.09-.7-1.45-1.24-15.95-24.15-24.42-52.47-24.34-81.41,0-10.38,1.07-20.72,3.22-30.87-.04-.8.58-1.48,1.38-1.52.8-.04,1.48.58,1.52,1.39,3.49,11.06,8.52,21.57,14.95,31.22,10.08,15.15,22.21,28.82,36.06,40.62h0c4.96,4.35,10.15,8.46,15.64,12.46,11.37,8.33,23.36,15.77,35.87,22.27,5.67,2.9,11.19,5.8,16.85,8.3,3.14,1.43,6.73,1.53,9.95.28,2.67-1.04,5.35-2.13,8.05-3.26,2.94-1.23,4.54-4.43,3.76-7.52-.1-.39-.17-.7-.22-.89-4.66-20.33-7.09-41.11-7.25-61.97h0v-6.34h0v-4.15c0-3.79.2-7.56.41-11.29h0c1.45-26.68,5.9-51.75,13.05-72.83.66-1.95-.37-4.07-2.32-4.74-1.91-.64-3.81-1.26-5.7-1.86-1.92-.6-3.97.43-4.62,2.34-7.79,22.89-12.6,50.07-13.89,78.83-.16,3.64-2.14,6.96-5.28,8.82-16.09,9.46-31.51,20.01-46.15,31.59-2.82,2.24-6.83,2.16-9.55-.2-12.87-10.96-24.15-23.65-33.52-37.72-16.92-26-20.95-50.49-11.32-68.95l.07-.13c1.23-2.05,2.51-4.05,3.83-6.04,11.06-14.64,31.64-23.13,58.92-24.08,1.72-.06,3.46-.09,5.22-.09,17.95.2,35.78,2.9,52.98,8.04h0l1.2.36.93.26h0c4.22,1.27,8.45,2.66,12.69,4.18h0l.3.1,3.31,1.23,1.04.39,1,.38h0c9.1,3.52,17.99,7.54,26.65,12.04,16.47,8.51,31.96,18.78,46.21,30.64-25.91,5.93-56.01,17.41-86.29,32.85-1.4.71-2.32,2.11-2.39,3.69-.12,1.87-.25,5.64-.35,8.71-.05,1.35,1.01,2.49,2.37,2.53.43.01.85-.08,1.23-.28h0c29.97-15.76,59.89-27.57,85.54-33.75,4.8-1.17,7.93-5.78,7.25-10.68-.47-3.42-1.01-6.81-1.59-10.16-.74-4.15-3.01-7.87-6.36-10.42-12.43-9.44-25.64-17.79-39.49-24.97-9.41-4.9-19.09-9.26-29-13.06-1.88-.71-2.83-2.81-2.12-4.69.07-.17.14-.34.23-.5,10.02-17.95,21.94-27.99,33.55-27.99h.36c13.7.25,27.36,14.51,37.46,39.17,5.49,13.68,9.48,27.91,11.92,42.45h0c1.16,6.67,2.09,13.57,2.78,20.63l-.19.12.25.25c1.18,12.24,1.67,24.54,1.45,36.84-.14,7.98-.57,15.84-1.25,23.55-20.57,16.3-42.64,30.62-65.89,42.77-8.18,4.35-16.37,8.37-24.46,12.1l-.38.17-1.87.84h0c-6.71,3.05-13.34,5.85-19.89,8.42h0l-1.1.42-1.45.54-3.28,1.25-.9.33-3.96,1.45-.48.19h0c-12.88,4.7-26.1,8.42-39.54,11.11-29.45,5.64-43.22,1.29-46.45-4.66ZM94.68,204.43c14.25-11.47,29.31-21.91,45.05-31.24.25,20.38,2.55,40.68,6.86,60.6-6.21-2.66-12.39-5.56-18.54-8.71-11.62-6.04-22.77-12.95-33.36-20.66ZM180.22,308.11c-6.33.82-12.7,1.22-19.08,1.22-28.3.08-56.03-8.03-79.83-23.36-.92-.59-1.19-1.83-.59-2.75.35-.54.94-.88,1.58-.91h1.12c6.6-.47,13.17-1.36,19.66-2.66,16.94-3.45,33.56-8.36,49.66-14.67,1.58-.59,3.35.19,3.99,1.76h0c6.84,16.66,15.25,29.24,24.65,37.24.99.86,1.09,2.35.23,3.34-.36.42-.86.7-1.41.78h.03ZM242.74,268.61c-10.57,20.78-23.56,32.44-36.16,32.21-13.7-.25-27.36-14.51-37.48-39.17h0c-.64-1.57.1-3.36,1.65-4.03l.32-.13c.66-.29,1.41-.34,2.1-.15,17.91,5.18,36.45,7.9,55.09,8.08,1.9,0,3.78,0,5.64-.1,2.19-.07,4.35-.19,6.47-.36,1.39-.04,2.56,1.05,2.6,2.44.01.42-.08.84-.27,1.21h.03ZM247.32,250.73c-4.61.67-9.25,1.08-13.9,1.23-12.49.35-24.97-.65-37.25-2.97-.91-.17-1.5-1.04-1.33-1.95.1-.51.43-.95.9-1.19,2.8-1.45,5.61-2.9,8.41-4.35,18.81-9.92,36.9-21.13,54.15-33.56.75-.54,1.79-.38,2.33.37.26.36.37.81.3,1.26-2.07,12.73-5.17,25.26-9.25,37.49-.65,1.94-2.33,3.36-4.35,3.67ZM269.07,262.47c-1.12,1.19-2.25,2.36-3.41,3.53-2.02,2.02-4.08,3.96-6.19,5.8-.67.61-1.71.56-2.31-.12-.44-.49-.55-1.2-.27-1.8l.64-1.45c.89-1.93,1.74-3.94,2.57-6.01.2-.48.62-.84,1.12-.97,2.1-.52,4.15-1.12,6.13-1.76.81-.41,1.79-.08,2.2.73.35.71.15,1.56-.47,2.04ZM298.79,215.53c-.71,1.81-1.45,3.6-2.25,5.38-.12.25-.23.49-.36.74-4.87,9.39-13.05,16.79-23.98,21.94-1.59.72-3.46.01-4.18-1.58-.3-.67-.36-1.42-.17-2.13,3.77-13.74,6.5-27.74,8.15-41.89.34-2.76,1.69-5.29,3.8-7.09,4.49-3.9,8.7-7.79,12.56-11.61h0c1.38-1.39,3.63-1.4,5.02-.02.41.41.72.92.89,1.47,3.81,12.65,4.03,24.48.54,34.79h-.01ZM301.69,146.21c-.82,1.45-2.65,1.97-4.11,1.15-.43-.24-.79-.58-1.05-.99l-.57-.89c-4.57-6.99-9.63-13.64-15.15-19.91-.89-1.03-.77-2.59.26-3.48.44-.38,1.01-.6,1.6-.6h0c13.25,0,20.2,3.28,22.31,7.25,1.88,3.37,1.35,9.21-3.22,17.43l-.07.03ZM308.84,165.77c-.01.51-.44.92-.95.9-.36,0-.69-.23-.83-.57-.16-.39-.33-.8-.51-1.19-.32-.73-.23-1.58.25-2.22l.54-.71c.65-.84,1.58-.71,1.58.22.07,1.23.04,2.31,0,3.57h-.07ZM778.06,130.77h55.59c4.6-.01,8.32-3.76,8.31-8.37,0-.33-.02-.65-.06-.97-.61-4.2-4.23-7.3-8.47-7.25h-69.03c-4.58.02-8.29,3.73-8.31,8.31v83.18c.02,4.58,3.73,8.3,8.31,8.31h69.32c4.6-.02,8.32-3.76,8.31-8.37,0-.32-.02-.64-.06-.96-.61-4.2-4.23-7.3-8.47-7.25h-55.37c-2.99,0-5.41-2.42-5.41-5.41v-14.15c0-2.99,2.42-5.41,5.41-5.41h41.73c4.6-.02,8.32-3.76,8.31-8.37,0-.32-.02-.64-.06-.96-.61-4.2-4.23-7.3-8.47-7.25h-41.51c-2.99,0-5.41-2.42-5.41-5.41v-14.15c-.06-2.99,2.32-5.46,5.31-5.51.03,0,.07,0,.1,0h-.07ZM947.96,163.1c-7.63-4.86-17.89-7.36-30.78-7.36-17.05,0-25.65-4.16-25.65-12.49s8.6-12.48,25.65-12.48c9.29-.02,18.49,1.76,27.1,5.25,5,1.52,8.47-.28,10.4-5.14,1.67-4.35-.55-8.46-5.12-10.53-10.22-4.3-21.22-6.42-32.3-6.24-12.61,0-22.73,2.63-30.63,7.76-7.39,4.54-11.81,12.68-11.6,21.36,0,9.58,3.89,16.93,11.51,21.76,7.63,4.83,17.88,7.36,30.77,7.36,17.05,0,25.65,4.16,25.65,12.49s-8.6,12.48-25.65,12.48h-4.16c-9.21-.14-18.32-1.92-26.89-5.27-4.19-1.57-8.86.55-10.44,4.74-.03.08-.06.17-.09.25-1.55,4.41.74,9.24,5.13,10.82,10.24,4.18,21.23,6.26,32.29,6.09h4.16c12.61,0,22.73-2.63,30.45-7.76,7.49-4.47,11.99-12.63,11.79-21.36,0-9.55-3.89-16.9-11.5-21.75h-.07ZM1114.37,114.13c-4.59,0-8.31,3.72-8.32,8.31v83.22c.19,4.6,4.07,8.16,8.66,7.97,4.32-.18,7.79-3.65,7.97-7.97v-83.22c-.02-4.56-3.68-8.26-8.24-8.31h-.07ZM1070.42,114.13h-82.87c-4.6,0-8.32,3.74-8.31,8.34,0,.33.02.66.06.99.6,4.2,4.22,7.31,8.47,7.25h27.63c2.99,0,5.42,2.43,5.42,5.43v69.53c.02,4.61,3.76,8.33,8.36,8.31.32,0,.64-.02.96-.06,4.2-.61,7.3-4.24,7.25-8.49v-69.24c0-2.99,2.41-5.42,5.39-5.43,0,0,.02,0,.03,0h27.84c4.61-.02,8.34-3.77,8.32-8.39,0-.32-.02-.64-.06-.96-.59-4.2-4.19-7.32-8.42-7.3h-.07ZM720.53,197.35h-55.34c-3,0-5.43-2.43-5.44-5.43v-69.27c.04-4.24-3.05-7.86-7.25-8.47-4.57-.55-8.72,2.71-9.28,7.28-.04.32-.06.65-.06.97v83.22c.02,4.59,3.73,8.31,8.32,8.31h69.3c4.6,0,8.32-3.74,8.31-8.34,0-.33-.02-.66-.06-.99-.58-4.24-4.24-7.37-8.51-7.3ZM449.51,130.77c8.84-.16,17.34,3.42,23.41,9.85,3.36,3.23,8.7,3.12,11.93-.24,1.48-1.54,2.32-3.58,2.35-5.72-.1-2.63-1.37-5.07-3.47-6.66-19.97-18.9-51.47-18.03-70.36,1.96-18.89,19.98-18.01,51.51,1.96,70.41,19.57,18.52,50.32,18.11,69.38-.94,3.12-3.39,2.9-8.67-.49-11.79-3.19-2.94-8.11-2.94-11.3,0-6.12,6.34-14.6,9.86-23.41,9.71-18.29.09-33.19-14.68-33.27-32.98,0-.11,0-.21,0-.32-.15-8.82,3.36-17.3,9.7-23.43,6.17-6.39,14.7-9.95,23.57-9.85ZM545.2,130.77h55.57c4.61-.02,8.34-3.77,8.32-8.39,0-.32-.02-.64-.06-.96-.61-4.2-4.24-7.31-8.48-7.25h-69.16c-4.58.02-8.3,3.73-8.32,8.31v83.18c.02,4.59,3.74,8.3,8.32,8.31h69.3c4.6,0,8.33-3.75,8.32-8.36,0-.33-.02-.65-.06-.97-.61-4.2-4.24-7.31-8.48-7.25h-55.35c-2.99,0-5.41-2.42-5.41-5.41h0v-14.18c0-2.99,2.41-5.42,5.39-5.43h41.73c4.6,0,8.33-3.75,8.32-8.36,0-.33-.02-.65-.06-.97-.61-4.2-4.24-7.31-8.48-7.25h-41.49c-2.99,0-5.41-2.42-5.41-5.41h0v-14.13c-.04-2.99,2.35-5.44,5.33-5.48.02,0,.05,0,.07,0h.07Z"/>
  <rect class="cls-1" x="1339.85" y="90.18" width="5.8" height="139.25"/>
  <g>
    <path class="cls-1" d="M1421.49,214.9v-100.81h92.34v15.12h-77.09v27.58h61.98v15.4h-61.98v27.58h77.09v15.12h-92.34Z"/>
    <path class="cls-1" d="M1525.16,214.9v-100.81h82.41c3.36,0,6.44.82,9.23,2.45,2.8,1.63,5.01,3.83,6.65,6.58,1.63,2.75,2.45,5.81,2.45,9.17v64.41c0,3.36-.82,6.42-2.45,9.17-1.63,2.75-3.85,4.95-6.65,6.58-2.8,1.63-5.88,2.45-9.23,2.45h-82.41ZM1543.63,199.78h63.52c1.03,0,1.87-.35,2.52-1.05.65-.7.98-1.52.98-2.45v-63.57c0-.93-.33-1.75-.98-2.45-.65-.7-1.49-1.05-2.52-1.05h-63.52c-.93,0-1.73.35-2.38,1.05-.65.7-.98,1.52-.98,2.45v63.57c0,.93.33,1.75.98,2.45.65.7,1.45,1.05,2.38,1.05Z"/>
    <path class="cls-1" d="M1638.35,214.9v-100.81h92.34v15.12h-77.09v27.58h61.98v15.4h-61.98v27.58h77.09v15.12h-92.34Z"/>
    <path class="cls-1" d="M1741.74,214.9v-100.81h18.05l67.44,80.37v-80.37h15.25v100.81h-18.05l-67.58-80.51v80.51h-15.11Z"/>
  </g>
</svg>