<?xml version="1.0" encoding="UTF-8"?>
<svg xmlns="http://www.w3.org/2000/svg" version="1.1" viewBox="0 0 1920 1080">
  <defs>
    <style>
      .cls-1 {
        fill: #075833;
      }
    </style>
  </defs>
  <!-- Generator: Adobe Illustrator 28.7.9, SVG Export Plug-In . SVG Version: 1.2.0 Build 218)  -->
  <g>
    <g id="Layer_1">
      <path class="cls-1" d="M1468,430.8C1409.4,155.3,1138.8-20.5,863.5,38.1c-96.3,20.5-184.6,68.5-254.3,138.2-23.1,23.2-44,48.5-62.4,75.6-5.4,7.3-10.3,14.9-14.6,22.9-144.2,241.9-65.1,555,176.7,699.3,241.8,144.3,554.6,65.1,698.8-176.8,10.5-17.7,20-36,28.3-54.8,3-6.3,5.7-12.8,8.1-19.4,35.9-92.6,44.3-193.5,24.1-290.8l-.3-1.6ZM1291.3,197.6c2.9,2.8,5.8,5.6,8.7,8.5,44.4,44.2,79.4,97,102.9,155.1,1.6,4-.3,8.6-4.3,10.3-1.4.6-2.9.7-4.4.5-14.9-2.5-30.1-3.6-45.2-3.2-11.6.3-21.6-8-23.7-19.4-8.1-47.7-21.2-94.3-39.1-139.2l-2.9-6.9c-1.1-2.5,0-5.5,2.5-6.6,1.9-.8,4-.4,5.5,1h0ZM1339.7,496.8c0-3,2.4-5.5,5.4-5.5,1.8,0,3.4.8,4.5,2.2,3.8,5.4,7.5,10.8,11,16.2,4.7,7.2,9,14.3,13.1,21.5,2.6,4.4,1.9,10-1.5,13.8-5.5,6.1-11.4,12.3-17.8,18.6l-7,7.1c-1.7,1.9-4.6,2-6.5.3-1-1-1.6-2.4-1.5-3.8.3-7.7.5-15.4.6-22.9.1-16,0-31.7-.4-47.3h0ZM698.2,155.9c79.1-56.7,174-87,271.3-86.8,25.8,0,51.5,2.1,76.9,6.3,4.3.8,7.1,4.8,6.3,9.1-.3,1.8-1.3,3.5-2.7,4.7-24.4,19.2-47.1,47.5-67.1,84.2-4.9,8.9-15.3,13.3-25.1,10.6-62.4-18.3-127.3-26.8-192.4-25.4-21.2.7-42.4,2.9-63.3,6.7-2.9.4-5.5-1.6-6-4.5-.3-1.9.5-3.8,2.1-5h0ZM631.5,854.5c-9.8-18.6,2.9-61.5,67.4-126.8h0c6.3-6.3,6.2-16.5,0-22.8-.4-.4-.9-.8-1.3-1.2l-7.7-6.1c-6.4-5.2-15.7-4.7-21.5,1.1l-2.5,2.5c-32.1,33.1-55,63.8-67.5,91.3-2.5,5.5-9.1,8-14.6,5.4-1.9-.9-3.4-2.2-4.6-3.9-50.4-76.3-77.2-165.8-76.9-257.3,0-32.8,3.4-65.5,10.2-97.6-.1-2.5,1.8-4.7,4.4-4.8,2.5-.1,4.7,1.8,4.8,4.4,11,35,26.9,68.2,47.2,98.7,31.8,47.9,70.2,91.1,114,128.4h0c15.7,13.8,32.1,26.7,49.4,39.4,35.9,26.3,73.8,49.9,113.4,70.4,17.9,9.2,35.4,18.3,53.2,26.2,9.9,4.5,21.3,4.8,31.4.9,8.4-3.3,16.9-6.7,25.4-10.3,9.3-3.9,14.3-14,11.9-23.8-.3-1.2-.5-2.2-.7-2.8-14.7-64.3-22.4-129.9-22.9-195.9h0v-20h0v-13.1c0-12,.6-23.9,1.3-35.7h0c4.6-84.3,18.6-163.6,41.2-230.2,2.1-6.2-1.2-12.9-7.3-15-6-2-12.1-4-18-5.9-6.1-1.9-12.6,1.4-14.6,7.4-24.6,72.4-39.8,158.2-43.9,249.1-.5,11.5-6.8,22-16.7,27.9-50.8,29.9-99.6,63.2-145.9,99.8-8.9,7.1-21.6,6.8-30.2-.6-40.7-34.6-76.3-74.8-105.9-119.2-53.5-82.2-66.2-159.6-35.8-217.9l.2-.4c3.9-6.5,7.9-12.8,12.1-19.1,35-46.3,100-73.1,186.2-76.1,5.4-.2,10.9-.3,16.5-.3,56.7.6,113.1,9.2,167.4,25.4h0l3.8,1.1,2.9.8h0c13.3,4,26.7,8.4,40.1,13.2h0l1,.3,10.4,3.9,3.3,1.2,3.2,1.2h0c28.7,11.1,56.9,23.8,84.2,38.1,52,26.9,101,59.4,146,96.8-81.9,18.8-177,55-272.7,103.8-4.4,2.2-7.3,6.7-7.6,11.6-.4,5.9-.8,17.8-1.1,27.5-.1,4.3,3.2,7.9,7.5,8,1.4,0,2.7-.3,3.9-.9h0c94.7-49.8,189.3-87.1,270.4-106.7,15.2-3.7,25.1-18.3,22.9-33.7-1.5-10.8-3.2-21.5-5-32.1-2.3-13.1-9.5-24.9-20.1-32.9-39.3-29.8-81-56.2-124.8-78.9-29.7-15.5-60.3-29.3-91.6-41.3-5.9-2.2-8.9-8.9-6.7-14.8.2-.5.5-1.1.7-1.6,31.7-56.7,69.3-88.5,106-88.5h1.1c43.3.8,86.5,45.9,118.4,123.8,17.3,43.2,30,88.2,37.7,134.2h0c3.7,21.1,6.6,42.9,8.8,65.2l-.6.4.8.8c3.7,38.7,5.3,77.6,4.6,116.4-.5,25.2-1.8,50.1-3.9,74.4-65,51.5-134.8,96.8-208.3,135.2-25.8,13.8-51.7,26.5-77.3,38.2l-1.2.6-5.9,2.7h0c-21.2,9.6-42.2,18.5-62.9,26.6h0l-3.5,1.3-4.6,1.7-10.4,3.9-2.8,1.1-12.5,4.6-1.5.6h0c-40.7,14.9-82.5,26.6-125,35.1-93.1,17.8-136.6,4.1-146.8-14.7ZM759.5,672.9c45.1-36.3,92.6-69.2,142.4-98.7.8,64.4,8.1,128.6,21.7,191.5-19.6-8.4-39.1-17.6-58.6-27.5-36.7-19.1-72-40.9-105.4-65.3ZM1029.9,1000.6c-20,2.6-40.1,3.9-60.3,3.9-89.5.3-177.1-25.4-252.3-73.8-2.9-1.9-3.8-5.8-1.9-8.7,1.1-1.7,3-2.8,5-2.9h3.5c20.9-1.5,41.6-4.3,62.1-8.4,53.5-10.9,106.1-26.4,156.9-46.4,5-1.9,10.6.6,12.6,5.5h0c21.6,52.6,48.2,92.4,77.9,117.7,3.1,2.7,3.4,7.4.7,10.5-1.1,1.3-2.7,2.2-4.5,2.5h0ZM1227.5,875.8c-33.4,65.7-74.5,102.5-114.3,101.8-43.3-.8-86.5-45.9-118.5-123.8h0c-2-5,.3-10.6,5.2-12.7l1-.4c2.1-.9,4.4-1.1,6.6-.5,56.6,16.4,115.2,25,174.1,25.5,6,0,12,0,17.8-.3,6.9-.2,13.7-.6,20.4-1.1,4.4-.1,8.1,3.3,8.2,7.7,0,1.3-.2,2.6-.8,3.8h0ZM1242,819.3c-14.6,2.1-29.2,3.4-43.9,3.9-39.5,1.1-78.9-2.1-117.7-9.4-2.9-.5-4.7-3.3-4.2-6.2.3-1.6,1.4-3,2.8-3.7,8.8-4.6,17.7-9.2,26.6-13.8,59.4-31.3,116.6-66.8,171.1-106.1,2.4-1.7,5.7-1.2,7.4,1.2.8,1.1,1.2,2.6.9,4-6.5,40.2-16.3,79.8-29.2,118.5-2,6.1-7.4,10.6-13.7,11.6ZM1310.7,856.4c-3.5,3.8-7.1,7.5-10.8,11.1-6.4,6.4-12.9,12.5-19.6,18.3-2.1,1.9-5.4,1.8-7.3-.4-1.4-1.6-1.7-3.8-.8-5.7l2-4.6c2.8-6.1,5.5-12.4,8.1-19,.6-1.5,1.9-2.6,3.5-3.1,6.6-1.7,13.1-3.5,19.4-5.5,2.6-1.3,5.7-.3,7,2.3,1.1,2.2.5,4.9-1.5,6.5ZM1404.6,708c-2.2,5.7-4.6,11.4-7.1,17-.4.8-.7,1.6-1.1,2.3-15.4,29.7-41.2,53.1-75.8,69.3-5,2.3-10.9,0-13.2-5-1-2.1-1.1-4.5-.5-6.7,11.9-43.4,20.5-87.7,25.8-132.4,1.1-8.7,5.4-16.7,12-22.4,14.2-12.3,27.5-24.6,39.7-36.7h0c4.4-4.4,11.5-4.4,15.9,0,1.3,1.3,2.3,2.9,2.8,4.7,12.1,40,12.7,77.4,1.7,110h0ZM1413.8,488.9c-2.6,4.6-8.4,6.2-13,3.6-1.3-.8-2.5-1.8-3.3-3.1l-1.8-2.8c-14.4-22.1-30.4-43.1-47.9-62.9-2.8-3.3-2.4-8.2.8-11,1.4-1.2,3.2-1.9,5.1-1.9h0c41.9,0,63.8,10.4,70.5,22.9,6,10.6,4.3,29.1-10.2,55.1h-.2ZM1436.4,550.7c0,1.6-1.4,2.9-3,2.9-1.2,0-2.2-.7-2.6-1.8-.5-1.2-1.1-2.5-1.6-3.8-1-2.3-.7-5,.8-7l1.7-2.2c2.1-2.7,5-2.2,5,.7.2,3.9.1,7.3,0,11.3h-.2Z"/>
    </g>
  </g>
</svg>